<svg width="18" height="18" viewBox="0 0 18 18" fill="none" xmlns="http://www.w3.org/2000/svg">
<path fill-rule="evenodd" clip-rule="evenodd" d="M1.6875 9C1.6875 4.96278 4.96278 1.6875 9 1.6875C13.0372 1.6875 16.3125 4.96278 16.3125 9C16.3125 13.0372 13.0372 16.3125 9 16.3125C4.96278 16.3125 1.6875 13.0372 1.6875 9ZM15.1875 9C15.1875 5.5841 12.4159 2.8125 9 2.8125C5.5841 2.8125 2.8125 5.5841 2.8125 9C2.8125 12.4159 5.5841 15.1875 9 15.1875C12.4159 15.1875 15.1875 12.4159 15.1875 9ZM9 5.625C9.30696 5.625 9.5565 5.87088 9.56239 6.17643L9.5625 6.1875V8.4375H11.8125C12.1232 8.4375 12.375 8.68934 12.375 9C12.375 9.30696 12.1291 9.5565 11.8236 9.56239L11.8125 9.5625H9.5625V11.8125C9.5625 12.1232 9.31066 12.375 9 12.375C8.69304 12.375 8.4435 12.1291 8.43761 11.8236L8.4375 11.8125V9.5625H6.1875C5.87684 9.5625 5.625 9.31066 5.625 9C5.625 8.69304 5.87088 8.4435 6.17643 8.43761L6.1875 8.4375H8.4375V6.1875C8.4375 5.87684 8.68934 5.625 9 5.625Z" fill="white"/>
</svg>
