<svg width="18" height="18" viewBox="0 0 18 18" fill="none" xmlns="http://www.w3.org/2000/svg">
<path fill-rule="evenodd" clip-rule="evenodd" d="M10.125 1.125C7.91713 1.125 6.30721 2.86169 6.47023 5.1033C6.6251 7.23042 8.25514 9 10.125 9C11.9939 9 13.622 7.23144 13.7797 5.10409C13.944 2.88679 12.3226 1.125 10.125 1.125ZM10.125 2.25C11.6662 2.25 12.7739 3.45363 12.6578 5.02095C12.5411 6.59539 11.3631 7.875 10.125 7.875C8.88599 7.875 7.70681 6.59488 7.59227 5.02165C7.47658 3.43103 8.5714 2.25 10.125 2.25ZM10.125 10.125C8.45787 10.125 6.81595 10.5927 5.51279 11.4613C4.08839 12.4108 3.13594 13.7866 2.83409 15.4603C2.70127 16.1855 3.17406 16.875 3.93785 16.875H16.3125C17.0759 16.875 17.5473 16.1866 17.4163 15.4603C17.1142 13.7866 16.1617 12.4108 14.7372 11.4613C13.434 10.5927 11.7921 10.125 10.125 10.125ZM10.125 11.25C11.5761 11.25 13.0005 11.6557 14.1133 12.3974C15.2912 13.1826 16.0633 14.2978 16.3091 15.6601L16.3105 15.6686C16.3155 15.7023 16.3128 15.7302 16.3069 15.7481L16.3062 15.75H3.94362L3.94258 15.7469C3.93666 15.7278 3.93431 15.6977 3.94095 15.6615C4.18691 14.2977 4.95893 13.1826 6.13676 12.3974C7.24949 11.6557 8.67387 11.25 10.125 11.25ZM3.09375 5.625C3.40071 5.625 3.65025 5.87088 3.65614 6.17643L3.65625 6.1875V7.59375H5.0625C5.37316 7.59375 5.625 7.84559 5.625 8.15625C5.625 8.46321 5.37912 8.71275 5.07357 8.71864L5.0625 8.71875H3.65625V10.125C3.65625 10.4357 3.40441 10.6875 3.09375 10.6875C2.78679 10.6875 2.53725 10.4416 2.53136 10.1361L2.53125 10.125V8.71875H1.125C0.81434 8.71875 0.5625 8.46691 0.5625 8.15625C0.5625 7.84929 0.808379 7.59975 1.11393 7.59386L1.125 7.59375H2.53125V6.1875C2.53125 5.87684 2.78309 5.625 3.09375 5.625Z" fill="#D81718"/>
</svg>
