<svg width="18" height="18" viewBox="0 0 18 18" fill="none" xmlns="http://www.w3.org/2000/svg">
<path fill-rule="evenodd" clip-rule="evenodd" d="M13.7812 2.8125C14.8577 2.8125 15.7324 3.6764 15.7497 4.74869L15.75 4.78125V13.2188C15.75 14.2952 14.8861 15.1699 13.8138 15.1872L13.7812 15.1875H8.4375C7.33368 15.1875 6.2102 14.3159 6.18784 13.2511L6.1875 13.2188V11.8125C6.1875 11.5018 6.43934 11.25 6.75 11.25C7.05696 11.25 7.3065 11.4959 7.31239 11.8014L7.3125 11.8125V13.2188C7.3125 13.6046 7.88045 14.0534 8.42112 14.0624L8.4375 14.0625H13.7812C14.2426 14.0625 14.6174 13.6923 14.6249 13.2327L14.625 13.2188V4.78125C14.625 4.31992 14.2548 3.94506 13.7952 3.93761L13.7812 3.9375H8.15625C7.69492 3.9375 7.32006 4.30774 7.31261 4.7673L7.3125 4.78125V6.1875C7.3125 6.49816 7.06066 6.75 6.75 6.75C6.44304 6.75 6.1935 6.50412 6.18761 6.19857L6.1875 6.1875V4.78125C6.1875 3.70481 7.0514 2.83015 8.12369 2.81276L8.15625 2.8125H13.7812ZM9.72725 5.78975C9.94387 5.57313 10.2932 5.57012 10.5135 5.78073L10.5227 5.78975L13.3352 8.60225C13.5519 8.81887 13.5549 9.16821 13.3443 9.38852L13.3352 9.39775L10.5227 12.2102C10.3031 12.4299 9.94692 12.4299 9.72725 12.2102C9.51063 11.9936 9.50763 11.6443 9.71823 11.424L9.72725 11.4148L11.5795 9.5625H2.8125C2.50184 9.5625 2.25 9.31066 2.25 9C2.25 8.69304 2.49588 8.4435 2.80143 8.43761L2.8125 8.4375H11.5795L9.72725 6.58525C9.51063 6.36863 9.50763 6.01929 9.71823 5.79898L9.72725 5.78975Z" fill="white"/>
</svg>
